# Blender 3.1.2
# www.blender.org
mtllib 44 Magnum.mtl
o 44 Magnum
v 0.006530 -0.009996 0.000000
v 0.006530 -0.008876 0.000000
v 0.005805 -0.008876 0.000000
v 0.005805 0.022244 0.000000
v 0.005485 0.022244 0.000000
v 0.005485 0.016572 0.000000
v 0.005531 0.020533 0.000000
v 0.005531 0.017368 0.000000
v 0.003263 0.030494 0.000000
v 0.004791 0.027174 0.000000
v 0.005485 0.023853 0.000000
v 0.002409 -0.010396 0.000000
v 0.005805 -0.010396 0.000000
v 0.001816 -0.010396 0.000000
v 0.002162 -0.009736 0.000000
v 0.004617 -0.009996 -0.004617
v 0.004617 -0.008876 -0.004617
v 0.004105 -0.008876 -0.004105
v 0.004105 0.022244 -0.004105
v 0.003878 0.022244 -0.003878
v 0.003878 0.016572 -0.003878
v 0.003911 0.020533 -0.003911
v 0.003911 0.017368 -0.003911
v 0.002307 0.030494 -0.002307
v 0.003388 0.027174 -0.003388
v 0.003878 0.023853 -0.003878
v 0.001703 -0.010396 -0.001703
v 0.004105 -0.010396 -0.004105
v 0.001284 -0.010396 -0.001284
v 0.001529 -0.009736 -0.001529
v -0.000000 -0.009996 -0.006530
v -0.000000 -0.008876 -0.006530
v -0.000000 -0.008876 -0.005805
v -0.000000 0.022244 -0.005805
v -0.000000 0.022244 -0.005485
v -0.000000 0.016572 -0.005485
v -0.000000 0.020533 -0.005531
v -0.000000 0.017368 -0.005531
v 0.000000 0.030494 -0.003263
v -0.000000 0.027174 -0.004791
v -0.000000 0.023853 -0.005485
v 0.000000 -0.010396 -0.002409
v -0.000000 -0.010396 -0.005805
v 0.000000 -0.010396 -0.001816
v 0.000000 -0.009736 -0.002162
v -0.004617 -0.009996 -0.004617
v -0.004617 -0.008876 -0.004617
v -0.004105 -0.008876 -0.004105
v -0.004105 0.022244 -0.004105
v -0.003878 0.022244 -0.003878
v -0.003878 0.016572 -0.003878
v -0.003911 0.020533 -0.003911
v -0.003911 0.017368 -0.003911
v -0.002307 0.030494 -0.002307
v -0.003388 0.027174 -0.003388
v -0.003878 0.023853 -0.003878
v -0.001703 -0.010396 -0.001703
v -0.004105 -0.010396 -0.004105
v -0.001284 -0.010396 -0.001284
v -0.001529 -0.009736 -0.001529
v -0.006530 -0.009996 0.000000
v -0.006530 -0.008876 0.000000
v -0.005805 -0.008876 0.000000
v -0.005805 0.022244 0.000000
v -0.005485 0.022244 0.000000
v -0.005485 0.016572 0.000000
v -0.005531 0.020533 0.000000
v -0.005531 0.017368 0.000000
v -0.003263 0.030494 0.000000
v -0.004791 0.027174 0.000000
v -0.005485 0.023853 0.000000
v -0.002409 -0.010396 -0.000000
v -0.005805 -0.010396 0.000000
v -0.001816 -0.010396 -0.000000
v -0.002162 -0.009736 -0.000000
v -0.004617 -0.009996 0.004617
v -0.004617 -0.008876 0.004617
v -0.004105 -0.008876 0.004105
v -0.004105 0.022244 0.004105
v -0.003878 0.022244 0.003878
v -0.003878 0.016572 0.003878
v -0.003911 0.020533 0.003911
v -0.003911 0.017368 0.003911
v -0.002307 0.030494 0.002307
v -0.003388 0.027174 0.003388
v -0.003878 0.023853 0.003878
v -0.001703 -0.010396 0.001703
v -0.004105 -0.010396 0.004105
v -0.001284 -0.010396 0.001284
v -0.001529 -0.009736 0.001529
v -0.000000 -0.009996 0.006530
v -0.000000 -0.008876 0.006530
v -0.000000 -0.008876 0.005805
v -0.000000 0.022244 0.005805
v -0.000000 0.022244 0.005485
v -0.000000 0.016572 0.005485
v -0.000000 0.020533 0.005531
v -0.000000 0.017368 0.005531
v -0.000000 0.030494 0.003263
v -0.000000 0.027174 0.004791
v -0.000000 0.023853 0.005485
v -0.000000 -0.010396 0.002409
v -0.000000 -0.010396 0.005805
v -0.000000 -0.010396 0.001816
v -0.000000 -0.009736 0.002162
v -0.000000 0.030494 0.000000
v 0.004617 -0.009996 0.004617
v 0.004617 -0.008876 0.004617
v 0.004105 -0.008876 0.004105
v 0.004105 0.022244 0.004105
v 0.003878 0.022244 0.003878
v 0.003878 0.016572 0.003878
v 0.003911 0.020533 0.003911
v 0.003911 0.017368 0.003911
v 0.002307 0.030494 0.002307
v 0.003388 0.027174 0.003388
v 0.003878 0.023853 0.003878
v 0.001703 -0.010396 0.001703
v 0.004105 -0.010396 0.004105
v 0.001284 -0.010396 0.001284
v 0.001529 -0.009736 0.001529
v -0.000000 -0.010396 0.000000
vn 0.4737 -0.8586 -0.1962
vn 0.1962 -0.8586 -0.4737
vn -0.1962 -0.8586 -0.4737
vn -0.4737 -0.8586 -0.1962
vn -0.4737 -0.8586 0.1962
vn -0.1962 -0.8586 0.4737
vn 0.1962 -0.8586 0.4737
vn 0.4737 -0.8586 0.1962
vn 0.9239 -0.0000 -0.3827
vn 0.3827 -0.0000 -0.9239
vn -0.3827 -0.0000 -0.9239
vn -0.9239 -0.0000 -0.3827
vn -0.9239 -0.0000 0.3827
vn -0.3827 -0.0000 0.9239
vn 0.3827 -0.0000 0.9239
vn 0.9239 -0.0000 0.3827
vn -0.0000 1.0000 -0.0000
vn 0.9238 0.0128 -0.3827
vn 0.3827 0.0128 -0.9238
vn -0.3827 0.0128 -0.9238
vn -0.9238 0.0128 -0.3827
vn -0.9238 0.0128 0.3827
vn -0.3827 0.0128 0.9238
vn 0.3827 0.0128 0.9238
vn 0.9238 0.0128 0.3827
vn 0.8502 0.3913 -0.3522
vn 0.3522 0.3913 -0.8502
vn -0.3522 0.3913 -0.8502
vn -0.8502 0.3913 -0.3522
vn -0.8502 0.3913 0.3522
vn -0.3522 0.3913 0.8502
vn 0.3522 0.3913 0.8502
vn 0.8502 0.3913 0.3522
vn 0.9071 0.1897 -0.3757
vn 0.3757 0.1897 -0.9071
vn -0.3757 0.1897 -0.9071
vn -0.9071 0.1897 -0.3757
vn -0.9071 0.1897 0.3757
vn -0.3757 0.1897 0.9071
vn 0.3757 0.1897 0.9071
vn 0.9071 0.1897 0.3757
vn -0.0000 -1.0000 -0.0000
vn -0.8733 -0.3264 0.3617
vn -0.3617 -0.3264 0.8733
vn 0.3617 -0.3264 0.8733
vn 0.8733 -0.3264 0.3617
vn 0.8733 -0.3264 -0.3617
vn 0.3617 -0.3264 -0.8733
vn -0.3617 -0.3264 -0.8733
vn -0.8733 -0.3264 -0.3617
vn 0.8314 -0.4361 -0.3444
vn 0.3444 -0.4361 -0.8314
vn -0.3444 -0.4361 -0.8314
vn -0.8314 -0.4361 -0.3444
vn -0.8314 -0.4361 0.3444
vn -0.3444 -0.4361 0.8314
vn 0.3444 -0.4361 0.8314
vn 0.8314 -0.4361 0.3444
vt 0.309546 0.438683
vt 0.309546 0.438683
vt 0.309546 0.438683
vt 0.309546 0.438683
vt 0.309546 0.438683
vt 0.309546 0.438683
vt 0.687131 0.680725
vt 0.687131 0.680725
vt 0.432180 0.932448
vt 0.432180 0.932448
vt 0.687131 0.680725
vt 0.687131 0.680725
vt 0.309546 0.438683
vt 0.309546 0.438683
vt 0.432180 0.932448
vt 0.309546 0.438683
vt 0.432180 0.932448
vt 0.309546 0.438683
vt 0.309546 0.438683
vt 0.309546 0.438683
vt 0.309546 0.438683
vt 0.309546 0.438683
vt 0.309546 0.438683
vt 0.687131 0.680725
vt 0.687131 0.680725
vt 0.432180 0.932448
vt 0.432180 0.932448
vt 0.687131 0.680725
vt 0.687131 0.680725
vt 0.309546 0.438683
vt 0.309546 0.438683
vt 0.432180 0.932448
vt 0.309546 0.438683
vt 0.432180 0.932448
vt 0.309546 0.438683
vt 0.309546 0.438683
vt 0.309546 0.438683
vt 0.309546 0.438683
vt 0.309546 0.438683
vt 0.309546 0.438683
vt 0.687131 0.680725
vt 0.687131 0.680725
vt 0.432180 0.932448
vt 0.432180 0.932448
vt 0.687131 0.680725
vt 0.687131 0.680725
vt 0.309546 0.438683
vt 0.309546 0.438683
vt 0.432180 0.932448
vt 0.309546 0.438683
vt 0.432180 0.932448
vt 0.309546 0.438683
vt 0.309546 0.438683
vt 0.309546 0.438683
vt 0.309546 0.438683
vt 0.309546 0.438683
vt 0.309546 0.438683
vt 0.687131 0.680725
vt 0.687131 0.680725
vt 0.432180 0.932448
vt 0.432180 0.932448
vt 0.687131 0.680725
vt 0.687131 0.680725
vt 0.309546 0.438683
vt 0.309546 0.438683
vt 0.432180 0.932448
vt 0.309546 0.438683
vt 0.432180 0.932448
vt 0.309546 0.438683
vt 0.309546 0.438683
vt 0.309546 0.438683
vt 0.309546 0.438683
vt 0.309546 0.438683
vt 0.309546 0.438683
vt 0.687131 0.680725
vt 0.687131 0.680725
vt 0.432180 0.932448
vt 0.432180 0.932448
vt 0.687131 0.680725
vt 0.687131 0.680725
vt 0.309546 0.438683
vt 0.309546 0.438683
vt 0.432180 0.932448
vt 0.309546 0.438683
vt 0.432180 0.932448
vt 0.309546 0.438683
vt 0.309546 0.438683
vt 0.309546 0.438683
vt 0.309546 0.438683
vt 0.309546 0.438683
vt 0.309546 0.438683
vt 0.687131 0.680725
vt 0.687131 0.680725
vt 0.432180 0.932448
vt 0.432180 0.932448
vt 0.687131 0.680725
vt 0.687131 0.680725
vt 0.309546 0.438683
vt 0.309546 0.438683
vt 0.432180 0.932448
vt 0.309546 0.438683
vt 0.432180 0.932448
vt 0.309546 0.438683
vt 0.309546 0.438683
vt 0.309546 0.438683
vt 0.309546 0.438683
vt 0.309546 0.438683
vt 0.309546 0.438683
vt 0.687131 0.680725
vt 0.687131 0.680725
vt 0.432180 0.932448
vt 0.432180 0.932448
vt 0.687131 0.680725
vt 0.687131 0.680725
vt 0.309546 0.438683
vt 0.309546 0.438683
vt 0.432180 0.932448
vt 0.309546 0.438683
vt 0.432180 0.932448
vt 0.432180 0.932448
vt 0.309546 0.438683
vt 0.309546 0.438683
vt 0.309546 0.438683
vt 0.309546 0.438683
vt 0.309546 0.438683
vt 0.309546 0.438683
vt 0.687131 0.680725
vt 0.687131 0.680725
vt 0.432180 0.932448
vt 0.432180 0.932448
vt 0.687131 0.680725
vt 0.687131 0.680725
vt 0.309546 0.438683
vt 0.309546 0.438683
vt 0.432180 0.932448
vt 0.309546 0.438683
vt 0.432180 0.932448
vt 0.432180 0.932448
s 0
usemtl M_PCL_Flat_Palette
f 16/18/1 13/14/1 28/31/1
f 31/35/2 28/31/2 43/48/2
f 46/52/3 43/48/3 58/65/3
f 61/69/4 58/65/4 73/82/4
f 88/99/5 61/69/5 73/82/5
f 103/116/6 76/86/6 88/99/6
f 107/121/7 103/116/7 119/134/7
f 1/1/8 119/134/8 13/14/8
f 17/19/9 1/1/9 16/18/9
f 32/36/10 16/18/10 31/35/10
f 47/53/11 31/35/11 46/52/11
f 62/70/12 46/52/12 61/69/12
f 77/87/13 61/69/13 76/86/13
f 92/104/14 76/86/14 91/103/14
f 108/122/15 91/103/15 107/121/15
f 2/2/16 107/121/16 1/1/16
f 18/20/17 2/2/17 17/19/17
f 33/37/17 17/19/17 32/36/17
f 48/54/17 32/36/17 47/53/17
f 62/70/17 48/54/17 47/53/17
f 78/88/17 62/70/17 77/87/17
f 93/105/17 77/87/17 92/104/17
f 108/122/17 93/105/17 92/104/17
f 2/2/17 109/123/17 108/122/17
f 19/21/9 3/3/9 18/20/9
f 34/38/10 18/20/10 33/37/10
f 49/55/11 33/37/11 48/54/11
f 64/72/12 48/54/12 63/71/12
f 79/89/13 63/71/13 78/88/13
f 94/106/14 78/88/14 93/105/14
f 110/124/15 93/105/15 109/123/15
f 4/4/16 109/123/16 3/3/16
f 19/21/17 5/5/17 4/4/17
f 35/39/17 19/21/17 34/38/17
f 50/56/17 34/38/17 49/55/17
f 64/72/17 50/56/17 49/55/17
f 79/89/17 65/73/17 64/72/17
f 94/106/17 80/90/17 79/89/17
f 111/125/17 94/106/17 110/124/17
f 5/5/17 110/124/17 4/4/17
f 21/23/13 5/5/13 20/22/13
f 36/40/14 20/22/14 35/39/14
f 51/57/15 35/39/15 50/56/15
f 66/74/16 50/56/16 65/73/16
f 81/91/9 65/73/9 80/90/9
f 96/108/10 80/90/10 95/107/10
f 112/126/11 95/107/11 111/125/11
f 6/6/12 111/125/12 5/5/12
f 7/7/9 23/25/9 22/24/9
f 22/24/10 38/42/10 37/41/10
f 37/41/11 53/59/11 52/58/11
f 52/58/12 68/76/12 67/75/12
f 67/75/13 83/93/13 82/92/13
f 82/92/14 98/110/14 97/109/14
f 97/109/15 114/128/15 113/127/15
f 113/127/16 8/8/16 7/7/16
f 11/12/18 22/24/18 26/29/18
f 41/46/19 22/24/19 37/41/19
f 41/46/20 52/58/20 56/63/20
f 56/63/21 67/75/21 71/80/21
f 71/80/22 82/92/22 86/97/22
f 86/97/23 97/109/23 101/114/23
f 101/114/24 113/127/24 117/132/24
f 117/132/25 7/7/25 11/12/25
f 9/9/26 25/27/26 24/26/26
f 39/43/27 25/27/27 40/44/27
f 39/43/28 55/61/28 54/60/28
f 54/60/29 70/78/29 69/77/29
f 69/77/30 85/95/30 84/94/30
f 99/111/31 85/95/31 100/112/31
f 99/111/32 116/130/32 115/129/32
f 115/129/33 10/10/33 9/9/33
f 10/11/34 26/29/34 25/28/34
f 25/28/35 41/46/35 40/45/35
f 40/45/36 56/63/36 55/62/36
f 55/62/37 71/80/37 70/79/37
f 70/79/38 86/97/38 85/96/38
f 85/96/39 101/114/39 100/113/39
f 116/131/40 101/114/40 117/132/40
f 10/11/41 117/132/41 11/12/41
f 27/30/42 13/14/42 12/13/42
f 42/47/42 28/31/42 27/30/42
f 57/64/42 43/48/42 42/47/42
f 72/81/42 58/65/42 57/64/42
f 87/98/42 73/82/42 72/81/42
f 102/115/42 88/99/42 87/98/42
f 118/133/42 103/116/42 102/115/42
f 12/13/42 119/134/42 118/133/42
f 122/138/42 29/32/42 14/15/42
f 122/138/42 44/49/42 29/32/42
f 122/138/42 59/66/42 44/49/42
f 122/138/42 74/83/42 59/66/42
f 122/138/42 89/100/42 74/83/42
f 122/138/42 104/117/42 89/100/42
f 122/138/42 120/135/42 104/117/42
f 122/138/42 14/15/42 120/135/42
f 106/120/17 9/9/17 24/26/17
f 106/120/17 24/26/17 39/43/17
f 106/120/17 39/43/17 54/60/17
f 106/120/17 54/60/17 69/77/17
f 106/120/17 69/77/17 84/94/17
f 106/120/17 84/94/17 99/111/17
f 106/120/17 99/111/17 115/129/17
f 106/120/17 115/129/17 9/9/17
f 27/30/43 15/16/43 30/33/43
f 42/47/44 30/33/44 45/50/44
f 57/64/45 45/50/45 60/67/45
f 72/81/46 60/67/46 75/84/46
f 87/98/47 75/84/47 90/101/47
f 102/115/48 90/101/48 105/118/48
f 118/133/49 105/118/49 121/136/49
f 12/13/50 121/136/50 15/16/50
f 29/32/51 15/17/51 14/15/51
f 44/49/52 30/34/52 29/32/52
f 59/66/53 45/51/53 44/49/53
f 74/83/54 60/68/54 59/66/54
f 89/100/55 75/85/55 74/83/55
f 104/117/56 90/102/56 89/100/56
f 120/135/57 105/119/57 104/117/57
f 14/15/58 121/137/58 120/135/58
f 16/18/1 1/1/1 13/14/1
f 31/35/2 16/18/2 28/31/2
f 46/52/3 31/35/3 43/48/3
f 61/69/4 46/52/4 58/65/4
f 88/99/5 76/86/5 61/69/5
f 103/116/6 91/103/6 76/86/6
f 107/121/7 91/103/7 103/116/7
f 1/1/8 107/121/8 119/134/8
f 17/19/9 2/2/9 1/1/9
f 32/36/10 17/19/10 16/18/10
f 47/53/11 32/36/11 31/35/11
f 62/70/12 47/53/12 46/52/12
f 77/87/13 62/70/13 61/69/13
f 92/104/14 77/87/14 76/86/14
f 108/122/15 92/104/15 91/103/15
f 2/2/16 108/122/16 107/121/16
f 18/20/17 3/3/17 2/2/17
f 33/37/17 18/20/17 17/19/17
f 48/54/17 33/37/17 32/36/17
f 62/70/17 63/71/17 48/54/17
f 78/88/17 63/71/17 62/70/17
f 93/105/17 78/88/17 77/87/17
f 108/122/17 109/123/17 93/105/17
f 2/2/17 3/3/17 109/123/17
f 19/21/9 4/4/9 3/3/9
f 34/38/10 19/21/10 18/20/10
f 49/55/11 34/38/11 33/37/11
f 64/72/12 49/55/12 48/54/12
f 79/89/13 64/72/13 63/71/13
f 94/106/14 79/89/14 78/88/14
f 110/124/15 94/106/15 93/105/15
f 4/4/16 110/124/16 109/123/16
f 19/21/17 20/22/17 5/5/17
f 35/39/17 20/22/17 19/21/17
f 50/56/17 35/39/17 34/38/17
f 64/72/17 65/73/17 50/56/17
f 79/89/17 80/90/17 65/73/17
f 94/106/17 95/107/17 80/90/17
f 111/125/17 95/107/17 94/106/17
f 5/5/17 111/125/17 110/124/17
f 21/23/13 6/6/13 5/5/13
f 36/40/14 21/23/14 20/22/14
f 51/57/15 36/40/15 35/39/15
f 66/74/16 51/57/16 50/56/16
f 81/91/9 66/74/9 65/73/9
f 96/108/10 81/91/10 80/90/10
f 112/126/11 96/108/11 95/107/11
f 6/6/12 112/126/12 111/125/12
f 7/7/9 8/8/9 23/25/9
f 22/24/10 23/25/10 38/42/10
f 37/41/11 38/42/11 53/59/11
f 52/58/12 53/59/12 68/76/12
f 67/75/13 68/76/13 83/93/13
f 82/92/14 83/93/14 98/110/14
f 97/109/15 98/110/15 114/128/15
f 113/127/16 114/128/16 8/8/16
f 11/12/18 7/7/18 22/24/18
f 41/46/19 26/29/19 22/24/19
f 41/46/20 37/41/20 52/58/20
f 56/63/21 52/58/21 67/75/21
f 71/80/22 67/75/22 82/92/22
f 86/97/23 82/92/23 97/109/23
f 101/114/24 97/109/24 113/127/24
f 117/132/25 113/127/25 7/7/25
f 9/9/26 10/10/26 25/27/26
f 39/43/27 24/26/27 25/27/27
f 39/43/28 40/44/28 55/61/28
f 54/60/29 55/61/29 70/78/29
f 69/77/30 70/78/30 85/95/30
f 99/111/31 84/94/31 85/95/31
f 99/111/32 100/112/32 116/130/32
f 115/129/33 116/130/33 10/10/33
f 10/11/34 11/12/34 26/29/34
f 25/28/35 26/29/35 41/46/35
f 40/45/36 41/46/36 56/63/36
f 55/62/37 56/63/37 71/80/37
f 70/79/38 71/80/38 86/97/38
f 85/96/39 86/97/39 101/114/39
f 116/131/40 100/113/40 101/114/40
f 10/11/41 116/131/41 117/132/41
f 27/30/42 28/31/42 13/14/42
f 42/47/42 43/48/42 28/31/42
f 57/64/42 58/65/42 43/48/42
f 72/81/42 73/82/42 58/65/42
f 87/98/42 88/99/42 73/82/42
f 102/115/42 103/116/42 88/99/42
f 118/133/42 119/134/42 103/116/42
f 12/13/42 13/14/42 119/134/42
f 27/30/43 12/13/43 15/16/43
f 42/47/44 27/30/44 30/33/44
f 57/64/45 42/47/45 45/50/45
f 72/81/46 57/64/46 60/67/46
f 87/98/47 72/81/47 75/84/47
f 102/115/48 87/98/48 90/101/48
f 118/133/49 102/115/49 105/118/49
f 12/13/50 118/133/50 121/136/50
f 29/32/51 30/34/51 15/17/51
f 44/49/52 45/51/52 30/34/52
f 59/66/53 60/68/53 45/51/53
f 74/83/54 75/85/54 60/68/54
f 89/100/55 90/102/55 75/85/55
f 104/117/56 105/119/56 90/102/56
f 120/135/57 121/137/57 105/119/57
f 14/15/58 15/17/58 121/137/58
